<?xml version="1.0" encoding="utf-8"?>
<!-- Generator: Adobe Illustrator 26.3.1, SVG Export Plug-In . SVG Version: 6.00 Build 0)  -->
<svg version="1.1" id="Calque_1" xmlns="http://www.w3.org/2000/svg" xmlns:xlink="http://www.w3.org/1999/xlink" x="0px" y="0px"
	 viewBox="0 0 512 419.8" style="enable-background:new 0 0 512 419.8;" xml:space="preserve">
<style type="text/css">
	.st0{fill:#B48752;}
</style>
<g>
	<path class="st0" d="M475.7,36.3C451.6,12.2,415.5,0,368.4,0H143.6C96.5,0,60.4,12.2,36.3,36.3C12.2,60.4,0,96.5,0,143.6v64.6
		c0,57.2,11.7,94.1,36.8,116.1c22,19.3,54,27.5,106.8,27.5h34.5c2.9,0,8.1,2.5,9.7,4.8c0,0,0.1,0.1,0.1,0.1l33.4,44.5
		c8.9,11.9,21.6,18.7,34.7,18.7s25.8-6.8,34.7-18.7l33.4-44.5c2.3-3.1,6.1-4.9,9.8-4.9h34.5c47.1,0,83.2-12.2,107.3-36.3
		c24.1-24.1,36.3-60.2,36.3-107.3v-64.6C512,96.5,499.8,60.4,475.7,36.3z M492,208.1c0,41.6-10.2,72.9-30.5,93.1
		c-20.2,20.2-51.5,30.5-93.1,30.5h-34.5c-10,0-19.7,4.8-25.8,12.9l-33.4,44.5c-5.2,6.9-11.8,10.7-18.7,10.7
		c-6.9,0-13.5-3.8-18.7-10.7l-33.4-44.5c-5.4-7.4-16.5-12.9-25.8-12.9h-34.5c-47.5,0-75.5-6.7-93.6-22.6c-20.4-17.9-30-50-30-101
		v-64.6c0-41.6,10.2-72.9,30.5-93.1C70.7,30.3,102,20,143.6,20h224.8c41.6,0,72.9,10.2,93.1,30.5C481.7,70.7,492,102,492,143.6
		V208.1z"/>
	<path class="st0" d="M128.9,149.6c0-13.3-8.7-19.1-20.4-20.8c-1.7-0.2-3.4-0.4-5.1-0.4H72.9v2.6c2.9,0,4.6,1.6,4.6,3.7v69.1
		c0,2-1.6,3.6-4.6,3.6v2.6h30.4c13,0,25.5-5.7,25.5-21.2c0-10.8-5.8-16.9-14.7-19.6C123.1,166.5,128.9,160.3,128.9,149.6z
		 M106.8,202c0,2.4-1.4,5.3-3.4,5.3h-3.8v-36.9h7.2V202z M106.8,164.2c0,2-1.6,3.7-3.6,3.7h-3.6V131h3.7c2.1,0,3.5,2.9,3.5,5.3
		V164.2z"/>
	<path class="st0" d="M163.9,149.1c-0.2,0-0.5-0.1-0.7-0.1c-1.5-0.3-2.9-0.4-4.4-0.5c-1.8,0-3.3,0.2-5.1,0.5l-0.7,0.1
		c-11.7,2.3-20.2,13-20.2,25v10.2c0,11.9,8.6,22.5,20.2,25c0.2,0.1,0.5,0.1,0.7,0.1v0.1c1.5,0.3,2.9,0.4,4.4,0.4
		c1.8,0,3.3-0.1,5.1-0.4l0.7-0.2c12-2.3,20.2-13.3,20.2-25.2v-9.8c0-1.7-0.2-3.4-0.5-5.1C181.6,159.1,173.8,151.2,163.9,149.1z
		 M162.1,203.2c0,2.1-1.7,4.2-3.6,4.2s-3.6-2-3.6-4.2v-48c0-2,1.7-4.1,3.6-4.1s3.6,2,3.6,4.1V203.2z"/>
	<path class="st0" d="M246.9,209.9v-2.6c-2.9,0-4.6-1.6-4.6-3.6v-19.5c0-5,0.2-9.4-0.3-13.5c-0.6-4.3-2.1-8.4-5.5-12.6
		c-3.7-4.5-8.8-7.7-14.5-8.8l-0.6-0.2c-1.6-0.2-3.2-0.4-4.8-0.4h-30.3v2.6c2.9,0,4.6,1.6,4.6,3.6v48.8c0,2-1.6,3.6-4.6,3.6v2.6h31.3
		v-2.6c-2.9,0-4.6-1.6-4.6-3.6v-52.4h3.3c2.2,0,3.9,1.8,3.9,4.1v54.6H246.9z"/>
	<path class="st0" d="M263.7,128.4c-6,0-10.9,5-10.9,11.2c0,6.1,4.9,11.2,10.9,11.2c6,0,10.8-5.1,10.8-11.2
		C274.6,133.4,269.7,128.4,263.7,128.4z"/>
	<path class="st0" d="M248.3,159.8c2.9,0,4.5,1.6,4.5,3.6v79.5c0,2-1.5,3.7-3.5,3.7H247c-5.1,0-9.7-2.2-13-5.7
		c-0.2-0.2-0.2-0.4-0.2-0.7c0-0.7,0.5-1.1,1.1-1.1c0.1,0,0.2,0,0.3,0c0.7,0.2,1.4,0.2,2.1,0.2c6,0,10.8-5,10.8-11.2
		c0-6.1-4.9-11.2-10.8-11.2c-6,0-10.9,5.1-10.9,11.2c0,11.6,9.1,21,20.6,21h2.3l4.8-0.2c11.1-0.3,20.5-8.8,20.5-20.6v-71.4h-26.3
		V159.8z"/>
	<path class="st0" d="M309.6,149.1c-0.2,0-0.5-0.1-0.7-0.1c-1.5-0.3-2.9-0.4-4.4-0.5c-1.8,0-3.3,0.2-5.1,0.5l-0.7,0.1
		c-11.7,2.3-20.2,13-20.2,25v10.2c0,11.9,8.6,22.5,20.2,25c0.2,0.1,0.5,0.1,0.7,0.1v0.1c1.5,0.3,2.9,0.4,4.4,0.4
		c1.8,0,3.3-0.1,5.1-0.4l0.7-0.2c12-2.3,20.2-13.3,20.2-25.2v-9.8c0-1.7-0.2-3.4-0.5-5.1C327.3,159.1,319.5,151.2,309.6,149.1z
		 M307.9,203.2c0,2.1-1.7,4.2-3.6,4.2c-1.9,0-3.6-2-3.6-4.2v-48c0-2,1.7-4.1,3.6-4.1c1.9,0,3.6,2,3.6,4.1V203.2z"/>
	<path class="st0" d="M437.5,148.7c-7.7,0-14.6,4.2-18.3,10.8v-10.8h-26.7h0h-31.3v2.6c2.9,0,4.6,1.6,4.6,3.6v52.4h-3.3
		c-2.2,0-3.9-1.9-3.9-4.1v-54.6h-26.7v2.6c2.9,0,4.6,1.6,4.6,3.6v19.5c0,5-0.2,9.4,0.3,13.5c0.7,4.3,2.1,8.4,5.6,12.6
		c3.7,4.4,8.7,7.7,14.4,8.8l0.6,0.1c1.6,0.3,3.2,0.5,4.8,0.5h30.3h0h31.2v-2.6c-2.9,0-4.6-1.6-4.6-3.6v-34.3c0-4.2,1.5-8.3,4.2-11.6
		c0.4-0.5,0.8-1.1,1.4-1.5c0.2-0.2,0.4-0.2,0.7-0.2c0.7,0,1.1,0.5,1.1,1.1c0,0.8-0.2,1.6-0.2,2.4c0,6.1,5,11.1,11.1,11.1
		c6,0,11-5,11-11.1S443.6,148.7,437.5,148.7z M397.1,203.7c0,2-1.6,3.6-4.6,3.6c-2.9,0-4.6-1.6-4.6-3.6v-48.8c0-2,1.6-3.6,4.6-3.6
		c2.9,0,4.6,1.5,4.6,3.6V203.7z"/>
</g>
</svg>
