<?xml version="1.0" encoding="utf-8"?>
<!-- Generator: Adobe Illustrator 26.3.1, SVG Export Plug-In . SVG Version: 6.00 Build 0)  -->
<svg version="1.1" id="Calque_1" xmlns="http://www.w3.org/2000/svg" xmlns:xlink="http://www.w3.org/1999/xlink" x="0px" y="0px"
	 viewBox="0 0 800 800" style="enable-background:new 0 0 800 800;" xml:space="preserve">
<path d="M400,800c-106.8,0-207.3-41.6-282.8-117.2C41.6,607.3,0,506.8,0,400c0-106.8,41.6-207.3,117.2-282.8
	C192.7,41.6,293.2,0,400,0c106.8,0,207.3,41.6,282.8,117.2C758.4,192.7,800,293.2,800,400c0,106.8-41.6,207.3-117.2,282.8
	C607.3,758.4,506.8,800,400,800z M400,61.5c-90.4,0-175.4,35.2-239.3,99.1S61.5,309.6,61.5,400c0,90.4,35.2,175.4,99.1,239.3
	c63.9,63.9,148.9,99.1,239.3,99.1c90.4,0,175.4-35.2,239.3-99.1c63.9-63.9,99.1-148.9,99.1-239.3c0-90.4-35.2-175.4-99.1-239.3
	C575.4,96.7,490.4,61.5,400,61.5z M317.9,594.9c-7.9,0-15.7-3-21.8-9L173.1,462.8c-12-12-12-31.5,0-43.5c12-12,31.5-12,43.5,0
	l101.3,101.3l265.4-265.4c12-12,31.5-12,43.5,0c12,12,12,31.5,0,43.5L339.7,585.9C333.7,591.9,325.8,594.9,317.9,594.9z"/>
</svg>
