<?xml version="1.0" encoding="utf-8"?>
<!-- Generator: Adobe Illustrator 26.3.1, SVG Export Plug-In . SVG Version: 6.00 Build 0)  -->
<svg version="1.1" id="Calque_1" xmlns="http://www.w3.org/2000/svg" xmlns:xlink="http://www.w3.org/1999/xlink" x="0px" y="0px"
	 viewBox="0 0 601 634.7" style="enable-background:new 0 0 601 634.7;" xml:space="preserve">
<style type="text/css">
	.st0{fill-rule:evenodd;clip-rule:evenodd;fill:#B48752;}
</style>
<path class="st0" d="M266.7,634.7V533.3h34.7V600h265.3V34.7H301.3v66.7h-34.7V0h334.7v634.7H266.7z M100.7,418
	C45.2,418,0,372.8,0,317.3s45.2-100.7,100.7-100.7c22.1,0,43.1,7,60.7,20.4c17,12.9,29.7,31.2,35.8,51.5l3.4,11.4l267.4,0v34.7
	h-33.3v66.7h-68v-66.7H200.6l-3.4,11.4c-6.1,20.3-18.8,38.7-35.8,51.5C143.8,411,122.8,418,100.7,418z M100.7,251.3
	c-36.4,0-66,29.6-66,66s29.6,66,66,66s66-29.6,66-66S137.1,251.3,100.7,251.3z"/>
</svg>
