<?xml version="1.0" encoding="utf-8"?>
<!-- Generator: Adobe Illustrator 26.3.1, SVG Export Plug-In . SVG Version: 6.00 Build 0)  -->
<svg version="1.1" id="Calque_1" xmlns="http://www.w3.org/2000/svg" xmlns:xlink="http://www.w3.org/1999/xlink" x="0px" y="0px"
	 viewBox="0 0 800 800" style="enable-background:new 0 0 800 800;" xml:space="preserve">
<path d="M188.4,800c-2.5,0-4.9-0.5-7.3-1.5c-7.1-2.9-11.8-9.9-11.8-17.6V604.4c-59.9-19.2-102.2-50.6-129.1-95.6
	C12.8,462.8,0,401.4,0,315.3c0-60.6,6.4-109,19.6-148c14.3-42.4,36.9-75.2,69-100.2c31.5-24.5,72.4-41.6,125.2-52.4
	C262.6,4.8,323.5,0,400,0c76.5,0,137.4,4.8,186.2,14.8c52.8,10.8,93.7,27.9,125.2,52.4c32.1,25,54.7,57.8,69,100.2
	c13.2,39,19.6,87.4,19.6,148c0,60.6-6.4,109-19.6,148c-14.3,42.4-36.9,75.2-69,100.2c-31.5,24.5-72.4,41.6-125.2,52.4
	c-48.9,10-109.8,14.8-186.2,14.8c-11.7,0-23.2-0.1-34.1-0.3L201.8,794.4C198.2,798.1,193.3,800,188.4,800z M400,38.1
	c-146.6,0-235.4,18.2-288,59.2c-26.1,20.3-44.5,47.2-56.3,82.3c-11.8,35-17.6,79.4-17.6,135.8c0,78.8,11.1,134.1,34.9,173.9
	c24,40.2,62.3,66.4,120.5,82.6c8.2,2.3,13.9,9.8,13.9,18.4V735l137.3-137.3c3.7-3.7,8.7-5.7,14-5.6c13,0.3,26.9,0.5,41.3,0.5
	c146.6,0,235.4-18.2,288-59.2c26.1-20.3,44.5-47.2,56.3-82.3c11.8-35,17.6-79.4,17.6-135.8c0-56.4-5.7-100.8-17.6-135.8
	c-11.8-35.1-30.3-62-56.3-82.3C635.4,56.3,546.6,38.1,400,38.1z M442.3,419H230.7c-10.5,0-19-8.5-19-19c0-10.5,8.5-19,19-19h211.6
	c10.5,0,19,8.5,19,19C461.4,410.5,452.8,419,442.3,419z M569.3,249.7H230.7c-10.5,0-19-8.5-19-19s8.5-19,19-19h338.6
	c10.5,0,19,8.5,19,19S579.8,249.7,569.3,249.7z"/>
</svg>
