<?xml version="1.0" encoding="utf-8"?>
<!-- Generator: Adobe Illustrator 26.3.1, SVG Export Plug-In . SVG Version: 6.00 Build 0)  -->
<svg version="1.1" id="Capa_1" xmlns="http://www.w3.org/2000/svg" xmlns:xlink="http://www.w3.org/1999/xlink" x="0px" y="0px"
	 viewBox="0 0 84 175" style="enable-background:new 0 0 84 175;" xml:space="preserve">
<style type="text/css">
	.st0{fill:#B68C58;}
</style>
<path id="XMLID_91_" class="st0" d="M3.2,25.6c2.1-5.1,5.1-9.6,9-13.5c3.9-3.9,8.4-6.9,13.5-9C30.7,1.1,36,0,41.4,0
	c5.5,0,10.8,1.1,15.8,3.2c5.1,2.1,9.6,5.1,13.5,9c3.9,3.9,6.9,8.4,9,13.5c2.1,5,3.2,10.4,3.2,15.8c0,3.6-1.4,7-4,9.7
	c0,0,0,0-0.1,0.1c-2.6,2.6-6.1,4.1-9.8,4.1c-3.7,0-7.2-1.4-9.8-4.1c-2.6-2.6-4-6-4-9.6c-0.1-1.6-0.3-3.7-1-5.4
	c-1.3-3-4.5-6.3-7.5-7.5c-1.7-0.7-3.4-1-5.2-1c-1.8,0-3.6,0.3-5.2,1c-1.7,0.7-3.2,1.7-4.5,3c-1.3,1.3-2.3,2.8-3,4.5
	c-0.7,1.7-1,3.4-1,5.2v10.2c0,2.7,1.1,5.2,3,7.1c1.9,1.9,4.4,3,7.1,3h28.6c9.9,0,17.7,7.8,17.7,17.7v78c0,9.9-7.8,17.7-17.7,17.7
	H17.7c-4.7,0-9.1-1.8-12.5-5.2c-3.3-3.3-5.2-7.8-5.2-12.5L0,41.4C0,36,1.1,30.7,3.2,25.6z M7.6,41.4v115.9c0,2.7,1.1,5.2,3,7.1
	c1.9,1.9,4.4,3,7.1,3h48.7c5.6,0,10.1-4.4,10.1-10.1v-78c0-5.6-4.4-10.1-10.1-10.1H37.7c-4.7,0-9.1-1.8-12.5-5.2
	c-3.3-3.3-5.2-7.8-5.2-12.5V41.4c0-2.8,0.5-5.6,1.6-8.2c1.1-2.6,2.6-4.9,4.7-6.9c2-2,4.3-3.6,7-4.7c2.6-1.1,5.3-1.6,8.2-1.6
	c2.8,0,5.6,0.5,8.2,1.6c4.9,2,9.6,6.7,11.6,11.6c1.1,2.8,1.5,5.7,1.6,7.9c0,0.1,0,0.2,0,0.3c0,1.7,0.6,3.2,1.8,4.4
	c1.2,1.2,2.8,1.8,4.4,1.8c1.6,0,3.2-0.6,4.4-1.8c1.2-1.3,1.9-2.8,1.9-4.4c0-4.5-0.9-8.8-2.6-12.9c-1.7-4.1-4.2-7.8-7.4-11
	c-3.2-3.2-6.9-5.6-11-7.4c-4.1-1.7-8.5-2.6-12.9-2.6c-4.5,0-8.8,0.9-12.9,2.6c-4.1,1.7-7.8,4.2-11,7.4c-3.2,3.2-5.6,6.9-7.4,11
	C8.5,32.6,7.6,37,7.6,41.4L7.6,41.4z"/>
</svg>
