<?xml version="1.0" encoding="utf-8"?>
<!-- Generator: Adobe Illustrator 26.3.1, SVG Export Plug-In . SVG Version: 6.00 Build 0)  -->
<svg version="1.1" id="Calque_1" xmlns="http://www.w3.org/2000/svg" xmlns:xlink="http://www.w3.org/1999/xlink" x="0px" y="0px"
	 viewBox="0 0 256 256" style="enable-background:new 0 0 256 256;" xml:space="preserve">
<style type="text/css">
	.st0{fill:#B48752;}
</style>
<path class="st0" d="M121.2,0C161.9,0,195,32.9,195,73.4c0,22.3-10,42.3-25.9,55.8c3.5,1.7,6.6,3.4,9.4,5.2
	c6.1,3.7,12.5,8.3,19.1,13.8c3.7,3.1,4.2,8.7,1.1,12.4c-3.1,3.7-8.7,4.2-12.5,1.1c-5.9-5-11.6-9-16.9-12.3c-4.8-2.9-10.8-5.9-18-9
	c-9.2,4.1-19.4,6.4-30.2,6.4c-11.9,0-23.1-2.8-33-7.7l-0.5,0.2l0,0c-25,9.7-43.2,24-54.9,43c-11.8,19.1-16.6,40.4-14.5,64.2
	c0.4,4.8-3.2,9.1-8,9.6c-4.9,0.4-9.2-3.1-9.6-8c-2.5-27.5,3.2-52.6,17-75c12.2-19.7,30-34.9,53.4-45.8
	c-14.5-13.4-23.6-32.5-23.6-53.8C47.4,32.9,80.4,0,121.2,0z M215.9,162.5c4.9,0,8.8,4,8.8,8.9l0,22.4l22.4,0c4.9,0,8.9,3.9,8.9,8.8
	c0,4.9-4,8.8-8.9,8.8l-22.4,0l0,22.4c0,4.9-3.9,8.9-8.8,8.9c-4.9,0-8.8-4-8.8-8.9l0-22.4l-22.4,0c-4.9,0-8.9-3.9-8.9-8.8
	c0-4.9,4-8.8,8.9-8.8l22.4,0l0-22.4C207.1,166.4,211,162.5,215.9,162.5z M121.2,17.6c-31,0-56.1,25-56.1,55.8s25.1,55.8,56.1,55.8
	s56.1-25,56.1-55.8S152.2,17.6,121.2,17.6z"/>
</svg>
